<?xml version="1.0" standalone="no"?>
<!DOCTYPE svg PUBLIC "-//W3C//DTD SVG 20010904//EN"
 "http://www.w3.org/TR/2001/REC-SVG-20010904/DTD/svg10.dtd">
<svg version="1.0" xmlns="http://www.w3.org/2000/svg"
 width="700.000000pt" height="700.000000pt" viewBox="0 0 700.000000 700.000000"
 preserveAspectRatio="xMidYMid meet">
<metadata>
Created by potrace 1.11, written by Peter Selinger 2001-2013
</metadata>
<g transform="translate(0.000000,700.000000) scale(0.100000,-0.100000)"
fill="#000000" stroke="none">
<path d="M4455 6114 c-110 -147 -205 -268 -211 -271 -7 -2 -54 7 -105 21 -52
14 -107 28 -124 31 -16 3 -55 10 -85 16 -176 34 -510 48 -660 29 -36 -5 -85
-11 -110 -14 -59 -7 -91 -13 -175 -32 -38 -9 -80 -18 -91 -20 -12 -2 -76 -22
-144 -43 l-123 -39 -24 29 c-13 16 -60 75 -104 131 -44 57 -85 105 -91 107 -6
2 -8 0 -5 -5 3 -5 8 -33 11 -62 6 -52 14 -114 22 -162 2 -14 7 -45 10 -70 l5
-45 -58 -30 c-317 -162 -559 -359 -812 -660 -47 -56 -170 -243 -226 -342 -31
-57 -60 -103 -63 -103 -11 0 -164 18 -202 24 -19 3 -98 12 -176 21 -77 9 -152
18 -165 20 -66 11 -132 14 -124 7 6 -5 129 -98 273 -207 244 -183 264 -199
259 -224 -3 -14 -17 -71 -31 -126 -30 -110 -31 -120 -56 -285 -25 -174 -23
-471 4 -655 22 -147 68 -335 111 -454 23 -63 25 -76 13 -85 -35 -26 -233 -183
-252 -199 -20 -18 -20 -18 -1 -13 11 2 43 7 70 11 28 3 82 11 120 16 39 6 88
13 110 15 l40 5 49 -93 c114 -219 256 -410 445 -598 145 -145 386 -329 501
-384 8 -4 42 -22 75 -40 53 -29 60 -36 59 -62 -1 -42 -19 -211 -29 -279 -3
-16 -10 -75 -15 -130 -6 -55 -15 -127 -20 -160 -6 -33 -10 -66 -10 -73 0 -18
14 0 231 288 l185 246 79 -23 c44 -13 94 -26 110 -29 17 -3 46 -9 65 -14 38
-9 95 -19 150 -26 19 -2 67 -8 105 -13 71 -9 460 -7 505 2 14 3 45 8 70 11 47
6 63 9 145 26 28 6 60 12 72 14 43 9 179 49 247 73 l68 25 19 -24 c10 -12 57
-72 105 -133 47 -60 89 -114 94 -118 4 -4 1 36 -7 90 -7 54 -15 112 -17 128
-2 17 -7 53 -11 80 l-7 50 88 45 c256 131 513 334 715 565 108 123 274 369
330 490 12 25 20 30 49 29 44 -1 197 -17 275 -29 17 -3 55 -7 85 -10 30 -3 87
-10 125 -15 176 -23 172 -23 150 -5 -11 9 -134 101 -272 206 -139 104 -253
195 -253 202 0 6 7 37 16 67 19 70 50 203 58 255 4 22 11 69 17 105 23 147 20
487 -6 658 -3 17 -7 49 -10 70 -10 65 -64 275 -95 367 -16 48 -29 89 -27 91 1
1 61 48 132 104 158 124 154 120 124 115 -54 -9 -190 -28 -289 -41 l-45 -5
-27 53 c-82 159 -171 297 -279 434 -79 99 -269 289 -372 372 -94 76 -272 194
-377 249 -67 36 -75 43 -74 69 1 48 19 208 39 354 2 14 6 52 10 85 4 33 8 74
10 90 12 95 15 125 13 125 -2 0 -93 -120 -203 -266z"/>
</g>
</svg>
